<?xml version="1.0" encoding="UTF-8"?>
<svg xmlns="http://www.w3.org/2000/svg" width="460" height="230" font-family="Consolas,Menlo,monospace">
<rect width="460" height="230" rx="12" fill="#0C0C14" stroke="#BC3DF2" stroke-width="1.5"/>
<text x="18" y="30" fill="#FF00EA" font-size="15" font-weight="bold">Top Languages</text>
<text x="18" y="48" fill="#6B5B7A" font-size="11">from public repos</text>
<text x="16" y="81" fill="#E6E6FA" font-size="12">TypeScript</text>
<rect x="118" y="68" width="288" height="18" rx="4" fill="#3178C6" opacity="0.9"/>
<text x="416" y="81" fill="#C084FC" font-size="11" text-anchor="end">100.0%</text>
<text x="16" y="107" fill="#E6E6FA" font-size="12">Jupyter</text>
<rect x="118" y="94" width="268" height="18" rx="4" fill="#DA5B0B" opacity="0.9"/>
<text x="416" y="107" fill="#C084FC" font-size="11" text-anchor="end">93.3%</text>
<text x="16" y="133" fill="#E6E6FA" font-size="12">Python</text>
<rect x="118" y="120" width="220" height="18" rx="4" fill="#3572A5" opacity="0.9"/>
<text x="416" y="133" fill="#C084FC" font-size="11" text-anchor="end">76.4%</text>
<text x="16" y="159" fill="#E6E6FA" font-size="12">CSS</text>
<rect x="118" y="146" width="82" height="18" rx="4" fill="#563D7C" opacity="0.9"/>
<text x="416" y="159" fill="#C084FC" font-size="11" text-anchor="end">28.8%</text>
<text x="16" y="185" fill="#E6E6FA" font-size="12">HTML</text>
<rect x="118" y="172" width="70" height="18" rx="4" fill="#E34C26" opacity="0.9"/>
<text x="416" y="185" fill="#C084FC" font-size="11" text-anchor="end">24.4%</text>
<text x="16" y="211" fill="#E6E6FA" font-size="12">JavaScript</text>
<rect x="118" y="198" width="6" height="18" rx="4" fill="#F7DF1E" opacity="0.9"/>
<text x="416" y="211" fill="#C084FC" font-size="11" text-anchor="end">0.7%</text>
</svg>