<?xml version="1.0" encoding="UTF-8"?>
<svg xmlns="http://www.w3.org/2000/svg" width="420" height="200" font-family="Consolas,Menlo,monospace">
<rect width="420" height="200" rx="12" fill="#0C0C14" stroke="#BC3DF2" stroke-width="1.5"/>
<text x="18" y="28" fill="#FF00EA" font-size="15" font-weight="bold">Top Languages</text>
<text x="18" y="46" fill="#6B5B7A" font-size="11">from public repos</text>
<text x="18" y="74" fill="#E6E6FA" font-size="12">TypeScript</text>
<rect x="130" y="62" width="270" height="16" rx="4" fill="#3178C6" opacity="0.9"/>
<text x="408" y="74" fill="#C084FC" font-size="11">100.0%</text>
<text x="18" y="96" fill="#E6E6FA" font-size="12">Jupyter Notebook</text>
<rect x="130" y="84" width="251" height="16" rx="4" fill="#DA5B0B" opacity="0.9"/>
<text x="389" y="96" fill="#C084FC" font-size="11">93.3%</text>
<text x="18" y="118" fill="#E6E6FA" font-size="12">Python</text>
<rect x="130" y="106" width="192" height="16" rx="4" fill="#3572A5" opacity="0.9"/>
<text x="330" y="118" fill="#C084FC" font-size="11">71.2%</text>
<text x="18" y="140" fill="#E6E6FA" font-size="12">CSS</text>
<rect x="130" y="128" width="77" height="16" rx="4" fill="#563D7C" opacity="0.9"/>
<text x="215" y="140" fill="#C084FC" font-size="11">28.8%</text>
<text x="18" y="162" fill="#E6E6FA" font-size="12">HTML</text>
<rect x="130" y="150" width="65" height="16" rx="4" fill="#E34C26" opacity="0.9"/>
<text x="203" y="162" fill="#C084FC" font-size="11">24.4%</text>
<text x="18" y="184" fill="#E6E6FA" font-size="12">JavaScript</text>
<rect x="130" y="172" width="8" height="16" rx="4" fill="#F7DF1E" opacity="0.9"/>
<text x="146" y="184" fill="#C084FC" font-size="11">0.7%</text>
</svg>